<?xml version="1.0" standalone="no"?>
<!DOCTYPE svg PUBLIC "-//W3C//DTD SVG 20010904//EN"
 "http://www.w3.org/TR/2001/REC-SVG-20010904/DTD/svg10.dtd">
<svg version="1.0" xmlns="http://www.w3.org/2000/svg"
 width="89.000000pt" height="98.000000pt" viewBox="0 0 89.000000 98.000000"
 preserveAspectRatio="xMidYMid meet">

<g transform="translate(0.000000,98.000000) scale(0.100000,-0.100000)"
fill="#000000" stroke="none">
<path d="M400 959 c-86 -40 -206 -76 -295 -89 -50 -7 -94 -16 -98 -20 -5 -4
-4 -76 2 -160 9 -124 17 -169 42 -244 51 -152 135 -270 259 -365 111 -83 127
-88 186 -58 156 80 295 254 353 442 23 72 51 346 39 377 -5 11 -26 18 -70 23
-90 10 -200 41 -292 81 -44 19 -80 34 -80 34 -1 0 -21 -10 -46 -21z m195 -82
c28 -11 96 -27 153 -37 57 -10 106 -21 109 -24 9 -9 -15 -269 -32 -330 -47
-178 -188 -357 -340 -434 -37 -19 -42 -19 -70 -5 -48 25 -136 96 -185 149
-127 136 -189 321 -190 566 0 65 -10 58 113 78 65 10 215 58 267 85 21 11 32
10 75 -7 27 -12 73 -30 100 -41z"/>
<path d="M385 890 c-70 -33 -186 -66 -267 -75 l-58 -6 0 -67 c0 -181 43 -336
131 -466 58 -86 93 -121 183 -180 l69 -45 51 27 c27 15 87 63 131 107 65 64
90 97 123 165 56 116 72 183 79 331 l6 125 -99 17 c-55 10 -137 33 -184 53
-47 19 -89 37 -95 39 -5 2 -37 -10 -70 -25z m104 -56 c17 -36 31 -71 31 -78 0
-6 -48 -114 -106 -241 -58 -126 -112 -247 -121 -268 l-16 -38 -23 22 c-14 13
-38 44 -54 70 l-30 46 91 184 c89 179 151 310 170 357 12 32 22 23 58 -54z
m211 -533 c-16 -26 -40 -57 -53 -69 l-24 -23 -39 85 -39 85 -87 3 -87 3 12 25
c11 22 20 25 70 28 31 2 57 7 57 13 0 5 -11 32 -25 59 -14 27 -25 56 -25 63 0
8 16 50 36 93 l36 79 99 -199 100 -198 -31 -47z"/>
</g>
</svg>
